<svg width="42" height="58" viewBox="0 0 42 58" fill="none" xmlns="http://www.w3.org/2000/svg">
<path d="M21 41.1875C24.2313 41.1841 27.3293 39.899 29.6142 37.6142C31.899 35.3293 33.1841 32.2313 33.1875 29V12.75C33.1875 9.51767 31.9035 6.41774 29.6179 4.13214C27.3323 1.84654 24.2323 0.5625 21 0.5625C17.7677 0.5625 14.6677 1.84654 12.3821 4.13214C10.0965 6.41774 8.8125 9.51767 8.8125 12.75V29C8.81586 32.2313 10.101 35.3293 12.3858 37.6142C14.6707 39.899 17.7687 41.1841 21 41.1875ZM12.875 12.75C12.875 10.5951 13.731 8.52849 15.2548 7.00476C16.7785 5.48102 18.8451 4.625 21 4.625C23.1549 4.625 25.2215 5.48102 26.7452 7.00476C28.269 8.52849 29.125 10.5951 29.125 12.75V29C29.125 31.1549 28.269 33.2215 26.7452 34.7452C25.2215 36.269 23.1549 37.125 21 37.125C18.8451 37.125 16.7785 36.269 15.2548 34.7452C13.731 33.2215 12.875 31.1549 12.875 29V12.75ZM23.0312 49.2109V55.4062C23.0312 55.945 22.8172 56.4616 22.4363 56.8426C22.0554 57.2235 21.5387 57.4375 21 57.4375C20.4613 57.4375 19.9446 57.2235 19.5637 56.8426C19.1828 56.4616 18.9688 55.945 18.9688 55.4062V49.2109C13.9608 48.7013 9.31972 46.3529 5.94296 42.6197C2.56621 38.8865 0.693685 34.0338 0.6875 29C0.6875 28.4613 0.901506 27.9446 1.28244 27.5637C1.66337 27.1828 2.18003 26.9688 2.71875 26.9688C3.25747 26.9688 3.77413 27.1828 4.15506 27.5637C4.53599 27.9446 4.75 28.4613 4.75 29C4.75 33.3098 6.46205 37.443 9.50951 40.4905C12.557 43.538 16.6902 45.25 21 45.25C25.3098 45.25 29.443 43.538 32.4905 40.4905C35.538 37.443 37.25 33.3098 37.25 29C37.25 28.4613 37.464 27.9446 37.8449 27.5637C38.2259 27.1828 38.7425 26.9688 39.2812 26.9688C39.82 26.9688 40.3366 27.1828 40.7176 27.5637C41.0985 27.9446 41.3125 28.4613 41.3125 29C41.3063 34.0338 39.4338 38.8865 36.057 42.6197C32.6803 46.3529 28.0392 48.7013 23.0312 49.2109Z" fill="white"/>
</svg>
